<svg xmlns="http://www.w3.org/2000/svg" width="600" height="406" viewBox="0 0 600 406" fill="none">
<path d="M0 16V2L86 2V74H171V117H257V64H343V0L429 0V5H514V58H600V406H514H429H343H257H171H86H0V16Z" fill="#EB99FF"/>
<path d="M0 125V180H86V86H171V124H257V140H343V161H429V106H514V89H600V406H514H429H343H257H171H86H0V125Z" fill="#A2ABFF"/>
<path d="M0 244V181H86V228H171V203H257V215H343V179H429V213H514V279H600V406H514H429H343H257H171H86H0V244Z" fill="#63B4FC"/>
<path d="M0 275V276H86V252H171V312H257V317H343V332H429V289H514V329H600V406H514H429H343H257H171H86H0V275Z" fill="#14B8EC"/>
</svg>
