<svg xmlns="http://www.w3.org/2000/svg" width="406" height="600" fill="none" viewBox="0 0 406 600"><path fill="#EB99FF" d="M16 600H2V514H74V429H117V343H64V257H0V171H5V86H58V0H406V86V171V257V343V429V514V600H16Z"/><path fill="#A2ABFF" d="M125 600H180V514H86V429H124V343H140V257H161V171H106V86H89V0H406V86V171V257V343V429V514V600H125Z"/><path fill="#63B4FC" d="M244 600H181V514H228V429H203V343H215V257H179V171H213V86H279V0H406V86V171V257V343V429V514V600H244Z"/><path fill="#14B8EC" d="M275 600H276V514H252V429H312V343H317V257H332V171H289V86H329V0H406V86V171V257V343V429V514V600H275Z"/></svg>