<svg xmlns="http://www.w3.org/2000/svg" width="512" height="512" fill="none" viewBox="0 0 512 512"><path fill="url(#paint0_linear_21:2)" d="M384.673 269.465C348.759 281.947 328.787 315.474 324.756 370.047C320.725 424.62 290.124 447.262 232.955 437.973C175.786 428.684 130.161 406.187 96.0795 370.483C61.9979 334.778 65.6626 300.96 107.074 269.029C148.484 237.098 180.367 217.504 202.722 210.247C225.076 202.99 250.179 173.236 278.031 120.985C305.883 68.7346 339.414 59.1553 378.627 92.2475C417.839 125.34 437.628 160.028 437.994 196.314C438.361 232.599 420.587 256.982 384.673 269.465Z"/><g filter="url(#filter0_bd_21:2)"><path fill="url(#paint1_linear_21:2)" fill-opacity=".4" d="M143 251C131.954 251 123 242.046 123 231L123 143C123 131.954 131.954 123 143 123L231 123C242.046 123 251 131.954 251 143V210.716C251 216.02 248.893 221.107 245.142 224.858L224.858 245.142C221.107 248.893 216.02 251 210.716 251H143Z" shape-rendering="crispEdges" style="mix-blend-mode:multiply"/><path fill="#fff" fill-opacity=".6" d="M143 251C131.954 251 123 242.046 123 231L123 143C123 131.954 131.954 123 143 123L231 123C242.046 123 251 131.954 251 143V210.716C251 216.02 248.893 221.107 245.142 224.858L224.858 245.142C221.107 248.893 216.02 251 210.716 251H143Z" shape-rendering="crispEdges"/></g><g filter="url(#filter1_bd_21:2)"><path fill="url(#paint2_linear_21:2)" fill-opacity=".4" d="M261 143C261 131.954 269.954 123 281 123H369C380.046 123 389 131.954 389 143V231C389 242.046 380.046 251 369 251H301.284C295.98 251 290.893 248.893 287.142 245.142L266.858 224.858C263.107 221.107 261 216.02 261 210.716V143Z" shape-rendering="crispEdges" style="mix-blend-mode:multiply"/><path fill="#fff" fill-opacity=".6" d="M261 143C261 131.954 269.954 123 281 123H369C380.046 123 389 131.954 389 143V231C389 242.046 380.046 251 369 251H301.284C295.98 251 290.893 248.893 287.142 245.142L266.858 224.858C263.107 221.107 261 216.02 261 210.716V143Z" shape-rendering="crispEdges"/></g><g filter="url(#filter2_bd_21:2)"><path fill="url(#paint3_linear_21:2)" fill-opacity=".4" d="M251 369C251 380.046 242.046 389 231 389L143 389C131.954 389 123 380.046 123 369L123 281C123 269.954 131.954 261 143 261L210.716 261C216.02 261 221.107 263.107 224.858 266.858L245.142 287.142C248.893 290.893 251 295.98 251 301.284V369Z" shape-rendering="crispEdges" style="mix-blend-mode:multiply"/><path fill="#fff" fill-opacity=".6" d="M251 369C251 380.046 242.046 389 231 389L143 389C131.954 389 123 380.046 123 369L123 281C123 269.954 131.954 261 143 261L210.716 261C216.02 261 221.107 263.107 224.858 266.858L245.142 287.142C248.893 290.893 251 295.98 251 301.284V369Z" shape-rendering="crispEdges"/></g><g filter="url(#filter3_bd_21:2)"><path fill="url(#paint4_linear_21:2)" fill-opacity=".4" d="M369 261C380.046 261 389 269.954 389 281V369C389 380.046 380.046 389 369 389H281C269.954 389 261 380.046 261 369V301.284C261 295.98 263.107 290.893 266.858 287.142L287.142 266.858C290.893 263.107 295.98 261 301.284 261H369Z" shape-rendering="crispEdges" style="mix-blend-mode:multiply"/><path fill="#fff" fill-opacity=".6" d="M369 261C380.046 261 389 269.954 389 281V369C389 380.046 380.046 389 369 389H281C269.954 389 261 380.046 261 369V301.284C261 295.98 263.107 290.893 266.858 287.142L287.142 266.858C290.893 263.107 295.98 261 301.284 261H369Z" shape-rendering="crispEdges"/></g><defs><filter id="filter0_bd_21:2" width="168" height="168" x="103" y="103" color-interpolation-filters="sRGB" filterUnits="userSpaceOnUse"><feFlood flood-opacity="0" result="BackgroundImageFix"/><feGaussianBlur in="BackgroundImage" stdDeviation="10"/><feComposite in2="SourceAlpha" operator="in" result="effect1_backgroundBlur_21:2"/><feColorMatrix in="SourceAlpha" result="hardAlpha" type="matrix" values="0 0 0 0 0 0 0 0 0 0 0 0 0 0 0 0 0 0 127 0"/><feOffset dy="2"/><feGaussianBlur stdDeviation="2"/><feComposite in2="hardAlpha" operator="out"/><feColorMatrix type="matrix" values="0 0 0 0 0 0 0 0 0 0 0 0 0 0 0 0 0 0 0.25 0"/><feBlend in2="effect1_backgroundBlur_21:2" mode="normal" result="effect2_dropShadow_21:2"/><feBlend in="SourceGraphic" in2="effect2_dropShadow_21:2" mode="normal" result="shape"/></filter><filter id="filter1_bd_21:2" width="168" height="168" x="241" y="103" color-interpolation-filters="sRGB" filterUnits="userSpaceOnUse"><feFlood flood-opacity="0" result="BackgroundImageFix"/><feGaussianBlur in="BackgroundImage" stdDeviation="10"/><feComposite in2="SourceAlpha" operator="in" result="effect1_backgroundBlur_21:2"/><feColorMatrix in="SourceAlpha" result="hardAlpha" type="matrix" values="0 0 0 0 0 0 0 0 0 0 0 0 0 0 0 0 0 0 127 0"/><feOffset dy="2"/><feGaussianBlur stdDeviation="2"/><feComposite in2="hardAlpha" operator="out"/><feColorMatrix type="matrix" values="0 0 0 0 0 0 0 0 0 0 0 0 0 0 0 0 0 0 0.25 0"/><feBlend in2="effect1_backgroundBlur_21:2" mode="normal" result="effect2_dropShadow_21:2"/><feBlend in="SourceGraphic" in2="effect2_dropShadow_21:2" mode="normal" result="shape"/></filter><filter id="filter2_bd_21:2" width="168" height="168" x="103" y="241" color-interpolation-filters="sRGB" filterUnits="userSpaceOnUse"><feFlood flood-opacity="0" result="BackgroundImageFix"/><feGaussianBlur in="BackgroundImage" stdDeviation="10"/><feComposite in2="SourceAlpha" operator="in" result="effect1_backgroundBlur_21:2"/><feColorMatrix in="SourceAlpha" result="hardAlpha" type="matrix" values="0 0 0 0 0 0 0 0 0 0 0 0 0 0 0 0 0 0 127 0"/><feOffset dy="2"/><feGaussianBlur stdDeviation="2"/><feComposite in2="hardAlpha" operator="out"/><feColorMatrix type="matrix" values="0 0 0 0 0 0 0 0 0 0 0 0 0 0 0 0 0 0 0.25 0"/><feBlend in2="effect1_backgroundBlur_21:2" mode="normal" result="effect2_dropShadow_21:2"/><feBlend in="SourceGraphic" in2="effect2_dropShadow_21:2" mode="normal" result="shape"/></filter><filter id="filter3_bd_21:2" width="168" height="168" x="241" y="241" color-interpolation-filters="sRGB" filterUnits="userSpaceOnUse"><feFlood flood-opacity="0" result="BackgroundImageFix"/><feGaussianBlur in="BackgroundImage" stdDeviation="10"/><feComposite in2="SourceAlpha" operator="in" result="effect1_backgroundBlur_21:2"/><feColorMatrix in="SourceAlpha" result="hardAlpha" type="matrix" values="0 0 0 0 0 0 0 0 0 0 0 0 0 0 0 0 0 0 127 0"/><feOffset dy="2"/><feGaussianBlur stdDeviation="2"/><feComposite in2="hardAlpha" operator="out"/><feColorMatrix type="matrix" values="0 0 0 0 0 0 0 0 0 0 0 0 0 0 0 0 0 0 0.25 0"/><feBlend in2="effect1_backgroundBlur_21:2" mode="normal" result="effect2_dropShadow_21:2"/><feBlend in="SourceGraphic" in2="effect2_dropShadow_21:2" mode="normal" result="shape"/></filter><linearGradient id="paint0_linear_21:2" x1="428.966" x2="314.732" y1="79.372" y2="457.876" gradientUnits="userSpaceOnUse"><stop stop-color="#14B8EC"/><stop offset="1" stop-color="#E990FF"/></linearGradient><linearGradient id="paint1_linear_21:2" x1="187" x2="187" y1="123" y2="251" gradientUnits="userSpaceOnUse"><stop stop-color="#14B8EC"/><stop offset="1" stop-color="#E990FF"/></linearGradient><linearGradient id="paint2_linear_21:2" x1="325" x2="325" y1="123" y2="251" gradientUnits="userSpaceOnUse"><stop stop-color="#14B8EC"/><stop offset="1" stop-color="#E990FF"/></linearGradient><linearGradient id="paint3_linear_21:2" x1="187" x2="187" y1="261" y2="389" gradientUnits="userSpaceOnUse"><stop stop-color="#14B8EC"/><stop offset="1" stop-color="#E990FF"/></linearGradient><linearGradient id="paint4_linear_21:2" x1="325" x2="325" y1="261" y2="389" gradientUnits="userSpaceOnUse"><stop stop-color="#14B8EC"/><stop offset="1" stop-color="#E990FF"/></linearGradient></defs></svg>